<mxfile host="65bd71144e">
    <diagram id="HIP3nbAZw_EuaXWnEj3U" name="Page-1">
        <mxGraphModel dx="1044" dy="609" grid="1" gridSize="10" guides="1" tooltips="1" connect="1" arrows="1" fold="1" page="1" pageScale="1" pageWidth="850" pageHeight="1100" math="0" shadow="0">
            <root>
                <mxCell id="0"/>
                <mxCell id="1" parent="0"/>
                <mxCell id="7" value="http://ics2o.mths.ca" style="swimlane;whiteSpace=wrap;html=1;fillColor=default;" parent="1" vertex="1">
                    <mxGeometry x="40" y="60" width="760" height="480" as="geometry"/>
                </mxCell>
                <mxCell id="9" value="&lt;font style=&quot;font-size: 18px;&quot;&gt;Ask your question and spin to get Yes or No!&lt;/font&gt;" style="text;html=1;align=center;verticalAlign=middle;resizable=0;points=[];autosize=1;strokeColor=none;fillColor=none;" vertex="1" parent="7">
                    <mxGeometry x="182.5" y="130" width="380" height="40" as="geometry"/>
                </mxCell>
                <mxCell id="13" value="&lt;font style=&quot;font-size: 18px; color: rgb(255, 255, 255);&quot;&gt;SPIN&lt;/font&gt;" style="whiteSpace=wrap;html=1;fillColor=#FF0000;strokeColor=#82b366;" vertex="1" parent="7">
                    <mxGeometry x="325" y="230" width="95" height="40" as="geometry"/>
                </mxCell>
                <mxCell id="8" value="&lt;font style=&quot;font-size: 24px;&quot;&gt;ðŸŽ¡Yes/No Spinner&lt;/font&gt;" style="text;html=1;align=center;verticalAlign=middle;resizable=0;points=[];autosize=1;strokeColor=none;fillColor=none;" vertex="1" parent="7">
                    <mxGeometry x="262.5" y="36" width="220" height="40" as="geometry"/>
                </mxCell>
                <mxCell id="20" value="" style="shape=image;verticalLabelPosition=bottom;labelBackgroundColor=default;verticalAlign=top;aspect=fixed;imageAspect=0;image=data:image/png,iVBORw0KGgoAAAANSUhEUgAAAQ8AAAEMCAYAAADauzOQAAAAAXNSR0IArs4c6QAAAARnQU1BAACxjwv8YQUAAAAJcEhZcwAAFiUAABYlAUlSJPAAAClmSURBVHhe7d15fFTV3T/wz11mn0z2BUISErIQEnZFRBQFFxat669StRUtaLWKdq+2fdpfF/WxtVVbq0Wf1grWKrS2LrWojwsi+04gAUJCgOzrTGafO/c+fyRBPEVMJndm7p35vl8vX7bn3GBeIfcz957vWThFURQQQsgI8WwDIYQMB4UHISQiFB6EkIhQeBBCIkLhQQiJCIUHISQiFB6EkIhQeBBCIkLhQQiJCIUHISQiFB6EkIhQeBBCIkLhQQiJCEerapODoigIhP3whNzwSV74JB/cwX54Qm54Qx54Qx4Ewn4E5SACkh9hJQxFURBWJACAwIngOA4CJ8AkmmHkjTAJZlgNNtgMNtiMKbAZ7LCIFljEgTaTYAbHcey3QhIEhUeCUaDAHXSh09uBTm87jrsaccx5FCfdx+ENuhGSJUhyCJIsQZIlyEoYYSUMWZEhK2HIUKAoMhQAUBQoA/8LHDiA48AB4DgePDjwnACe4yHwAgROhMAJEHkRIm+AgRdhNdoxLqUI4x0lKHQUI9uaixxrLmzGlIE/j+gahYfO+SQvGvqO4HBPLWq796OuuwbOQB9kRYYCeTAUZChQEOu/ao7jwIEDz/HgOR4cBv6dZk5HRUYVKjMnozyjEiVpZbCIVvbLicZReOiAAgXhwSeFoBxEbdd+7GjbjNruGjQ5GxAI+9kv0RUDb8S4lEJUZk7GOWNmoyprGiyiBSIvQuBFekrRKAoPjZIVGd6QG66gC92+Tmw8+R72de7Gyf4mBCR9h8XnMQlm5KcUojprKi4qWIAsay7shhTYjHYInMBeTuKEwkNDZEWGK9CHZvcJHO07jL3tO3C4pxadvg7ISpi9PCkIvIgsczZK0sswPXcWStMqkJ9SgFRTOniOioXxROGhAb6QFw3Oemxt+Qh1PQdwsr8Jvb5uhJM0MD6LwAlIM2ecesWZNeYCFKeVwmaws5eSGKDwiBMZMtrdrdhw4l28f3w9ev09cIdcCIVD7KXkDAy8AXajA2mmdMwvWogL8i/GGHs+BF5kLyVRQuERY2EljB2tm/HG0b+hpnMPAmE/JHlgLgWJjMiLMAomVGZOxjXlS3FO3mwaG4kBCo8oG6qUuENuvN34Bt5qeBXN/SfYy4iKcmxjcNWEG3BF8VWwG+1UsYkSCo8oUaDAG/Kgzd2CN4/+HRtPvgdnsC/mcy2SmcOUhgvyL8ZVpTcgzzYWNqOdQkRFFB5R4Ao4cajnAD44/ja2t26CM9B3aqYmiS0OHFJNaZieOwvzxy9EZcZkOEyp7GUkAhQeKnKH+rG3fQfeavgnDvUchDPQy15C4shhTMXEzGpcOn4xZuadhxQjhchoUHioIBgOYn/nLqw58ByOuxrhDvbTk4ZGcRwHq2hHkaMYt1Qvx+TsGTAJJvYyMgwUHqN0tPcQ/rj/Kezt2AVJDkFWZPYSokE8x0PkDZiUNRl3TrsfE9Iq2EvI56DwiIAkS3AGevH8/mfwzrE3KDB0jud4zC9aiNsmfx3p5gyINFdkWCg8RiAsh9EX6MF7Teux7tAa9Pq72UuIjqWbM3F9xU2YX7gQ6eZMCDzNFTkbCo9h8kle7GzbirV1q1HfW4eQTDNBE5HIiyhLr8T1FTdjZt5s2Aw29hIyiMJjGBr6jmDtoTXY0bqZKihJwmFMxcy82bix8laUpJWx3YTC4+x8khfvNa3HSwf/iC5fB41tJBme45FlycGNlbfi0vGLacMiBoXHZzjZ34Sndz+GvR07EQwH2W6SRIyCEZOzZuCuGd9CoWM82520KDwYwXAQm5s34A97foMuXwfbTZJYpiUbd067H+fnz6O5IRQen1CgoNvXidU1z+LdpjdpaTw5I4NgwPzChfjK5K8h05yV1BsSUXgMPm3UdO3BH/f9Dod7atluQv5DaXoFlk+5F9XZ02EUjGx3Ukj68OgPuvBWwz/x6uG/oMffTateybBwHIcMcyauKVuKxROuScp1MkkdHt2+Tqza8wS2tm6EN+Rhuwn5XBbRivPzL8KKqSuRaclmuxNa0oZHq/skfvrx93DMeZT2CiWjInACilJL8F8XPIqx9nFsd8JKuvAIy2HU9uzHTzZ+B65AH9tNSMQcxlT85MJfojJjSlJMbU+q8PCFvPi4+QM8ufMR+CUf203IqJkEM+6d+T3MHTcfVkNiTypLmvDoC/TiH4f/in8cfhleicY3SPRYRRuuKb8R15QvRZopne1OGEkRHr3+bjy//xl8cPxt+CQv202I6iyiFfMKL8Oy6q8hw5LFdieEhA8PV6APj2z5EfZ17kYwHGC7CYkak2BCVfY0PHj+L+BIwFJuQoeHO9iPH3y4Eod6D9KiNhIXPMejPH0SHp73JGzGFLZb1xIyPBQo6PP34IEP70VD3xG2m5CYG586AY/M+x3SLZkJc/xDwk3MlxUZre5mPLjhPjT21bPdhMRFk7MBD354H1rdzVAS5Ck4ocJDVmSc7G/CY9t+imPOetrBnGiGAgVN/Ufxq63/H8f7jyVEgCRMeChQ0OZpwe92/RK13fsRlmnWKNGWsBxGXU8Nntr1S7R6WnT/4ZYwYx7OQB9+svFbONRzkA6OJpom8iIqMibhJ3MfQ6opje3WjYR48pDCITy06UHUdtdQcBDNk2QJtd01+MWmByDpeN8Y3YdHSA7iF5sfxO6O7VSOJbohKzL2dOzAzzc/qNv5R7oOD2/Ii2f3PonNLRvYLkJ0YUvLBjy750l4Q/qb+azb8PBLPrxZ/zesb3idnjiIbsmKjHea3sSbR/+mu8WaugyPkBzC1taNWHf4RVqrQnTPG/Jg3aEXsbllAyQdHSamu/CQFRmNffV4bu9v0efvYbsJ0aU+fw/+uO8pNPbV6+ZJWnfh0R904dGtP0aHp033dXJChihQ0OFpw6Nbf4L+oJPt1iRdhYckS/j19p/huKuRgoMkHAUKmlwN+PX2n+tiyoFuwkOSQ3il7gVsbqbKCklsm5s34JW6FzQ//qGL8JAVGdtaN+Glg39iuwhJSC8d/BO2t27S9BoYXYRHk6sRz+59AkFZn5NpCBmpoBzAqj1PoMnVyHZphubDo8/fg+f3/x5t7hY6kIkkDUUZWOj5p/1Pa7aqqOnwCMkhvHPsX9jZtpXOViFJJ6yEsbNtC95teguSor0BVM2GhwIFx5xH8ffDL+p27j8hoxUMB7Cubg0a+7S3P41mw6M/4MIzu3+Nbl8X20VIUunxd+HpXY/BHexnu+JKs+Hxr4ZXcbBrH9tMSFI62L0Pbx79O9scV5oMj0M9B7Gubg2NcxAySFZkrKtbg8M9tWxX3GguPPySD7/b9ShcOpmiS0isuIJO/Hbnf2tm9a3mwuOthn+gvqeObSaEAKjvrcNbDf9km+NCU+Fx0tWEV+pW0+sKIZ8hrISxtm41mvuPs10xp5nw8Es+vFT7JzgDvWwXIeQ0fYEevFT7fNxfXzQRHooiY3/nbuxs36qL1YSExJMkS9jRuhk1XXvjuveHJsLDFXTi9fq/aXYaLiFa0xvowRv16+JaWIh7eMiKjLruA9hDu58TMmyKImN3+3bUdR+I230T9/DwSV48X/N03N/fCNEbn+TFCzXPxG0f37iHx+bmDTjac5htJoQMQ33PIWxp/ohtjom4hodf8mHNgWcBju0hhAwLB6w58GxcntzjGh7rG19Di/sk20wIGYFm9wmsb3iNbY66uIVHr78ba+tWs82EkAisPbQ65tXKuIXHB8ffQZevk20mhESgy9eJD46/wzZHFafEYW+/vkAvvvG/yzUxxZYkh3RTJsY7SjDWVgCHMRUG3gCv5EWXrwPNnhNodB3R/QTF/JRC/GbBc0gzpbNdURHz8FAUBf9qeBWr9j4Bnw4P9yX6wHMCbAYbLhy7AJeMW4iilBIInMBedkowHMDOji1Yf+INHOqtQSgc1NzOXZ/HYrDizqn3Y1HJNeC46FchYh4ezkAffrH5Aexp38F2ETJqHMch3ZSBeflXYHHRNcgwZ7GXnJUkS2h01WPNoVU46jwctzkUkZqWcw5+OOcROEypbJfqYjrmoUBBbfd+NPYdZbsIGTWjYEJ1xnQ8MPMh3FKxfMTBAQAiL6IsbSK+P/PnWFZ5F/KsY9lLNK3ReRQHu/bF5KkppuHhC3mxqfnDuM7HJ4nJLFowP/8KrJz6fRSnlrLdI2YRrVhQsBgrpz6AktQytluzXEEnNrV8GJMhgZiGR6e3HTtbt2r6FCyiPybBhEvyF2Jp+e3IMGeCU2nWIQcO5emTsHLqAyh2jD6QYkFRZOxq24ZObzvbpbqYhYckS9jZthVd/g62i5CI8ZyAi/Mvxy0TlyPF6BiYcqkiDhzG2YqwvGolcnXyCtPpa8ee9h1Rrx7FLDz8YR/ePvYGPXUQ1fAcjwUFi/DVqpUwCxa2WzUcx6EibRK+UHxDVP87alEUGf9u/Cf84ehOWY9ZeJx0NaHJ1cA2ExIRo2DCpQVLsKLqvrOWYNXCcTzmjl2AktSymJRBR+uYqwHNrujOo4pZeLxWvxbhKD9GkeRgEa1YMG4xllXeFZPgGGI3pGBp2TKYeDPbpTlhWcJrR9eyzaqKSXh4JS+2t25imwkZMYtoxWUFV2Jp+a0wCbG/icvSKlGUUsw2a9K2lo+jOk8lJuGxteUjOAN9bDMhIzJQVbkC15XeBLvBwXbHhFEw4ZKCRWyzJjkDfdgWxQ/tmITHm/Wvsk2EjAjPCbho7GW4eeJypMQpOIbMyJ7FNmnWm0ejd+9FPTy6fZ2o7aYzZ0nkeI7HgnGLsKL6Pk1UOzLN2ci25LLNmlTTuRs9/ugcFh/18Njdvp0OcSIRMwomLChYjBXVsamqDNc4exHbpEkKZOxp3842qyKq4RFWwni36V+I8do7kiAGqiqLcFvl3ZoKDgDIsuSwTZokyzLeOfavqHyARzU8urwdOOE8FpNFOiSxDFRVlmBp+W1xqap8HhNvYps0SYGCE65j6I7CxltRDY/DPQfhC0evVEQSk0kw4ZJxV+C60pthN6Sw3ZoQkkNsk2Z5JQ+O9Kp/eHzUwkOBgp3tW+ENedguQj7TqapKRfyrKmfTp6MzlX2SFzvbtqj+BhC18HD6e3Hc1Ri306yI/vAcj/njFmqmqnI2rd5mtkmzwnIYTc4GuFSeaxW18Gj3tqLD08Y2E3JGRsGEBeMW447q+zU3OMpyh/px0t3ENmtah7cNbZ4WtnlUohIeiqLgmLOBNv0hw2IWLQNVlUnaq6qcyYHuvZCjUL2IJlegD8ddx1StfEYlPIJyEMec9QhIfraLkE+xiFZcXnClZqsqLFkJ472Tb7HNmueX/Gjsq1d1oDcq4eEJuXGkp071ARqSWD5Zq6LdqgrrpPs46npr2GbNU6CgvrcO7mA/2xWxqISHO+hCu7eVbSbkFEFDa1WGS1Ik/P3oX+CV9FlBbPO0wB1ysc0Ri0p49Add6PFFZz490T+e43GJTqoqQxQo2Nu5A/u6duq2gtjj70J/UMPhIckSDvfUqvpuRRLH0FoVPVRVhihQ0OZpxitHXoAzqG65M5aC4SAO99SqtrdpFMIjhINde9lmQmARLZiv0bUqZ9MX6MGaQ8+i0XWE7dKd2u79CCvqhIfqJ8a5Q/349v/eiQan/n/QZyPyIjLN2cizjkWOZczA+aeCEWFZQn/IhU5fO1o9zej2dyIQpqrT0FqV60tv0c3gKAZ/n5+teRxb2jdCSoCn6QnpFfjlJU+r8negenj0+Xuw/N9fhCuQmHM8bAY7JmdOx6UFS5BrHQObaIdRMMHAG8BxPBRFgaSEEAwH4ZXc6PJ1YmPLe9je8bGupjSryTT4qvLFslt1MziKwTUhT+59GLs7t6n2qB9vDlMqnlv4CtLMGWzXiKkeHk2uBtzx1tKEK9MKnICZObNxU8Vy5FhyYeRNw9pFW4GCkByCJ9iPVxtewr+b/hmV5dFaJXAC5o9biGWVd8Ms6mNwFIPB8fien2N353bdDpCeCQcOqxa9jCLH6PdhVX3M40hvYs3v4MDBJtrxzek/wndn/BQF9iKYBPOwggODX2/kjUg3Z+L2Sffg4TlPYYw1f9hfr2c8x+PicVdgRfX9ugoOT6gfT+55KOGCA4MfZkd7D7HNEVE9POp71PnGtIDnBIyzF+HRC57G7LyLVLnhJ6SW48fnPYZpWefCwBvY7oRhFEyYP24R7qz+hm4GRxUo6Av0YFXN49jdlXjBMaReq+HR7D7BNukSz/EoTa3A92b+DLk2dY8ZzLbk4GuTv4lzcy+AgTey3bpnFi2YP24hbp/0dd0EBwA4A71YXbcKW9s3JswYx5k096tzGJTq4dGRIDNL822F+GrVvci1jlHt4OTTZZlzsKzya5iVOwc8p/pfQ9xYRAsuK7gSXyq/XRdrVYa4Q/34U+3v8XHr+wk/R0mt2d+q/9a2u9X5xuIpxejA9aW3YHzKhKje2JnmHNw+6V7MzruQ7dIlk2DCxfkLcb2O1qpgcHD0qX2PYkvbhoQPDgwuz1eDqneGN+SJ6glVscBzPCamV2NW7gUQeZHtVl2aKR13T/ku5oy5mO3SlYG1Kpdqfgcwlk/y4ok9v8COjs0J/apyOk/QDV9o9PepquHR6WvXfaXFLFiwtOx2mITYbXBrESy4Z8p3cf6YeVF90omW06sqFl1VVdx4Yu9D2NW5LWEHR89EgYIuXwfbPGKq/qZ2eUb/DcXbpIwpqtTAR8okmLGiaiVm512kq0HUobUq+qyq/Aa7kyw4hnT62tmmEVM1PHoD3WyT7lxeeFVUBkiHI9WYjmWVd2GWTqowZtGCS8Yt1N1aFWegF2vqnk34qsrZ9PhGf6+qGx7+HrZJV8yiBZMyprDNMZVpzsZXTlVhtHtDDp1Wf5NOqyobW99LisHRz6LGUgkKj9MUO8pgEa1sc8xlmbNx+6R7cF7eXLZLE4bOVdFbVcUneZOqqnI2ThXuVVXDQ82NRuKh0D6ebYqbNFMGvq7BKozACbhw7KW4qVx/VZXHk6yqcjZOFRauUnicRmsnn59eheE0UIUZqqrcoceqyp6HsKtza1IOjp6JOzT6vUxV/Y30htxsk65ocfHWUBXm/DhXYfS7VqV3cK1KclZVPotbhQ96VcPDJ/nYJl0JhYNskybEuwozUFW5QodrVfqw5tAqbG3/iF5VGH4VNqhSNTz8Og8PNUago+XTVRhV/9rOamgHsJvKv6q7qsrztb/Hxpbkrqp8FjXuVVV/C0OyNj+5h6vZo85qw2gZqsLMzruI7YqKT6oq+to6cKiqsrntQwqOzxBU4V5VNTwkWd87ZB3uq1X1OL5oSDNl4O4p3456FYaqKoktHB79vapqeOh9ez1XsA9N/Q1ss+ZYBOtAFSYvOlUYXVdV9j5MVZVhUGMHdZV/87T9qT0cHza/o4vFfSbBjBXVKzEn7yJVdyTTa1XFGejFqgOPYzcFx7Co8TuuanhoeTr1cG1oeRc9/tHP+4+FVGM6bq28C7Ny56pShfmkqnKPboIDQzuAHVqFrW1UVRkuNf5+VQ6P+CwoU5M71I93jr+um1ewgSrMnaNeCzOwA9iSwbUqsduOYLQGqipPY2NL4u8ApiY1Knaj/xNOo+bjc7xIcggfNL+DY66jbJdmZZlzBqswka2FGdgBbGitir4GR3+/71fY3LZB95W+WFNjoytVw8Ooo3kAZ9Pt78DLR55Hb2D0i4diJc2Ugbsnf2fEVRiBEzB3zPzBHcBS2W7NGqqqbO/4OCFOcos1NWZTqxoeFjExwkNWZOzq3Ia/1b+oq20VLaIV90z5HubkzRvWMREcx+HCsZfizupvamI18XB5JQ9+u/e/qaoyCmpM+FM1PEzC6NNMKxRFxjvHX8e6+jWqzMaLFZNgwvLq+zAnb95ZB1GNvBGX5C/E3VO+DYGPfKwklgaqKn1YVfM4dnZupuAYBTU+LFQNjxSjft6Xh0NSJLzRuA7r6tfo6gkk1Zg2WIU581oYs2DBvPzLsbzqXlVG3WPFFejDi4eewxaqqoyaGvequuFhGv03pDWSIuG1xrX46+E/waOjVcOZ5mzcOrgW5vSAMAsWLChYhJsrlqvy6BornpAbf677Aza0vEuDoyrQXHg4jPoZcBuJsCLh7eOv48VDz+ouQAZ2JBs4F8YomDAv/3LcUPplVX55YsUn+fD0/scGD2Si4FCDwzT6e1XV8Eg3Z7JNCSMoB/F+89t4+cif4ZU8bLdmDVRhvo0Lxy7A3DGX4MsTV+gq5H2SD0/ufXhws2KqqqglzZTBNo2YyuEx+m9Iy4LhANY3/RN/r/8L/GH9DKJaRCvum/Yg7pr8bVUGymLFK3nx5N6HsKNjE2SdTNrTCzXuVVXDI8OSxTYlHEmR8HrjWqw9slpXAcKBU2VWYSwMVVWerXk86Q5kihU13hJU/W3S2h6g0aLXKoxeDFVVNrdtoFeVKMm15bFNI6ZqeGRYska1vkJPJEXCaw36q8JoHVVVok/gBKSr8JagangYeAPSzOlsc8LSaxVGq6iqEhvp5kyInMbWtgBArnUM25TQ9FqF0RqqqsROjk2de1T18Mizj2WbEl4wHMC/m/6Bv9e/qKtBVK0YWKvyCFVVYkStD3jVw6PQoZ1T12IprITxeuM63VVh4kmBAmewD8/WPIGdnVuoqhIjRanFbFNEVA+P0vSJbFPSOFWFOUJVmOFwBvrwYh1VVWKtLKOSbYqI6uFR5ChRZaMRvRpaC/PykedpEPUsPCE3XqCqSswZBAMKU9R5O1A9PCyiVZUJKHoWViSsb3oNa6gKc0ZUVYmfNFOmKhsBIRrhYeANyLGOfgKK3gXlID6gKsx/oKpKfOXa8lTbLlT18BB4ERPSytnmpERVmE/zSl6qqsRZSVo5REGj4WHgDajKnqqbdRTR9qkqjI52JFPT6WtVaAew+OE4HlVZUyCqNAtc9Tuc53jk2wt0tXoz2k5VYY4mZxXG+am1KrQDWLxYRSvy7QWqLSFRPTwAwG50INOSzTYntU/WwiRXFcYd6qeqikZkWXKQouJeLlEJjxSjAwVJOlnsbAbWwryGFw89lxQB4pN8eKbmN9hEVRVNKEwtht1oZ5sjFpXwsBnsKEufGJVDmPVuYC3Merx85PmErsKcqqq0fUQnuWkAx/EoTauAzZDCdkUsKnc3z/EochTDJtrYLnKqCqO/HcmGy0dVFc2xG+wodBSrWshQ709iFDqKkWFJ7sliZzNQhRnckSxBqjBDa1XoXBXtSTdnolClNS1DohYeGZYs5NnGgsPnn1yWrBKtCvPpHcCoqqIVHDjk2cYi0zz6DYBOF7XwsIo2lGdUwaDShJREdaoKo/O1MKfWqjRTVUVrDIIBFRlVsBrUHUaIWnhwHIeZeefBLNB8j88TViS83fSabnck80s+PLP/MWykqoomWUQbZuadxzaPWtTCA4MrbG0qp12i+mRHMn1VYfySD0/QWhVNsxlsKEotYZtHLarhYTemYErOTFVHeBPZJ1UYfayF8UlePLlvoKoSpqqKJvEcj2k558BmUG9+x5Co39XzixZSeIyAHtbCKFDgGqqqdFBVRct4jsfFhZezzaqI+l1dkVGp6sSUZKD1c2GoqqIfdoMD5RmT2GZVRD08rAY75o67hG0mn0OrO5J5Qv14oW4VVVV0Ym7BfNWrLEOiHh4AsKjkaprvEYGhHcm0UoXxD65V+bj1PQQpODSPA4dFJVezzaqJSXiUpk9EgaOIbSbDoJUqjF/y4bd7H6G1KjpSmFoc1Y25YhIePMfjkqKFbDMZpqEqzN/qX4Q/7Ge7o25orcq2jo+pqqIj84uuiGqxInp/MuOyoiVRKRcli7ASxhuN67D2yAsxq8J8UlV5AjvoXBVdsRlTcGnRErZZVTELjxSTA1VZU9lmMgKxXgvzSVXlQ5oApjPVmVNhN0a3yhmz8DAJZlxZeh1MgpntIiMwtBYm2lUYd8iN1YeoqqJHJsGMJTG412IWHjzHozi1jAZOVXD6uTD9QRfbPWrekAfP1DyGjS1UVdGjcSmFKE4tjep4B2IZHgCQYc7CnLEXQ1BpA9ZkFpSDeP/kejx34Al0+7vY7oh1+Trw8M4fYGvbRqqq6JDACZg7bn5M9hCOaXgYBAPOy7+ADoVSSUgOYmPr+3ho+wOo6z0wqgHNsBLGjo7NeGDzvTjYs492ANOpbGsezh0zJyZHvnKKoihsYzQFwgH8etvP8OGJd0b1y04+zcgbMXvMRbiu5CakmzNhES0QuLP/AkmyBJ/kRae/DWuPrMaerh0IhgPsZUQneI7HvILL8K1ZP4JRMLHdqot5eADA3vYd+NnmB+AK9LFdZJQsogVlqZWYnXcRxqUUwWFIhUW0QuAEKADCSgg+yQdnsA9NrgZsbf8IDc4juljFS87OYUzDjy54BFNzZrJdURGX8PBLPvx447ewp30HFMT8P58UeI6HVbQhxZgKuyEFJt4EBQr8YR88ITdcQSd8kpd+/gmCA4fpuefiJ3N/pdpB1p8nLuEBALvbt+MHG1bSqkxCVCDyIh6a91tMyzmH7YqamA6Ynq46e1rUlgoTkmwqMqpQnT2NbY6quIWHgTdg+ZR7abUtIaPEgcOKqSshfs4AudriFh4YfPqYkTeLbSaEjMCMvPMwKWsK2xx1cQ0PALht8t20STIhEbIabFg2+S62OSbiHh5FqSU4b+yF9PpCyAhx4DAnfx7GO9TfGX044h4eRsGE68pvQrY1h+0ihJxFljUH15Z/CUYx+hPCziTu4cGBQ1FqCS4ujO7GJYQkEoETsKBoEQodxXF7atfE3WoSTLi8+EoUpIxnuwghZ1DgGI9Lxy+GKQbT0D+LJsIDgz+MK4qvivoeBITonVm0YGHxF1DgiO+HrWbCgwOHy4qXoDitNG6PYYRoHQcO4x0TsGD84rjfJ5oJDwBINaVjxdSVMIv09EHImZgEE+6Yfh9STWlsV8xpKjwAoDJzMhZPuI5tJoQAWDLhelRmTmab40Jz4SHyIr5SfQcKHcVsFyFJrdAxHl+pvkMzO/FpLjwAwCJa8Y1zfwADb2C7CElKIi/im7P+CxaDle2KG02GBwCUpVfi6rIbY7KdGiFaJvIiri1fitK0CrYrrjQbHkbBiGvKbkRZeiVNHiNJi+f4gQ/S0hthFIxsd1xp+q7MsubglqrlSDdnsl2EJIUMcxa+Un0HsjS4fEPT4cFzPKZkz8CSCdfGbGs1QrTCLFqweMK1qM6ersmnb+19RwyTaMa15V9CeXpl3CfFEBIrHDhMzKzCteVL4zoF/WzitofpSHX5OnHX+pvgpB3XSRJINaXh6cv/gixr9A9vipTmnzyGZFmy8cM5D8MiaqdURUg0WEQrfnTBI5oODugpPABgas45uLlqOcy0eI4kKLNgxperVmBKdmzOXhkNXYUHAHyh9AbML1oEkSaQkQQj8gYsGL8YV5Zez3Zpku7CwySYcUv1ckzPPZcGUEnC4MBhWs45uLnqq7rZlkJ34cFxHDLMWbhz2v0oTitjuwnRpZK0Mtw57X5kmLPAcfr4UNRdeGBw/kehoxj3zPgO0k0ZbDchupJuzsTXZ34XRaklmpzP8Vn0852eQXX2NNx/7oOwGexsFyG6YDemYOXM76M6ayrbpXm6Dg8AmD32Iiyfei9shhS2ixBNsxns+OqUezAnfx7bpQu6Dw+O47Co5Bp8uWoF7EZ6AiH6YDPYcUvVciwuuUY3Yxws3YcHBsdAlpRehxsnLqNJZETzzKIFSyuX4crSG8DpaIyDpd/vnGESTLiq9AZcV3GTbkpdJPmYBDOuK78JV5XeoNk1K8OVMOGBwXM7v1S5DEtKr4VBY3sfEGLgjVgy4VrcNOl2WBPgfOaECg8MHl952+Sv4+qy/wcjTwFCtMHAG3FV6fW4bcrdmtvUJ1K6WVU7UsFwEH+ueQav16+DX/Kx3YTEjFm04OqyL+KWqhW6f1U5XcKGBwCEwkG8euSveLn2z+gPuthuQqIuxejAjRNvxXUVX0q49VgJHR4AEJSD+ODYevzP/qfQ6+9muwmJmjRTBpZPvRcXF16eMK8qp0v48MDgE8jW1o/x+12/Qpevg+0mRHVZlhzcNeNbmD1mbsIO3idFeAzZ17ETD23+IXr8XWwXIarJtGTh+7N/jqk52t+TYzSSKjwA4LirEb/Y9CCaXA2QFZntJiRiQws2fzjn4aQ48TDpwgMAev3deHLHI9jZtgX+sJ/tJmTEzKIZM3PPx8pzvpc0R4UkZXgAgDvYj1cPv4TX69ehL9DLdhMybGmmdCyZcB2un3gz7Em0QDNpwwMA/JIP21s34X/2PYVW90koSNofBYkABw559nwsn3oPzs2bk3RnCyV1eACAJEtocZ/EY9t+irruGgoQMiw8x6MiowrfmvUjjLUXJOWZykkfHkNCcgh/2P0bvFa/lu0i5D9cXfZF3DHtfhgSbOLXSFB4MLY0f4Tf7X4UPb4uSLLEdpMkJvIiMsxZuGfmdzF77IVsd9Kh8GAoUNDqbsYf9z2FXe1b4Qm5QT+i5MZxHKyiHTPyzsVtk+/GWHuBrvYajRYKj8/QH3BiY/MHWFe3Bif7m2gsJElx4DDWXoAbKm7GhQUL4DClspckLQqPsxgYTD2BV2pX44MT6xEMB9lLSAIz8AbML1qIGypuQb6jECKXfIOiZ0PhMQw+yYu67gN4Zvev0eisZ7tJAipyFOPOad9AVfZU2tryM1B4jIAn5MbautX4x5GX4Q152G6SACwGK64u/SKWVi5LiN2+oonCY4QUKGjoPYxVe5/A4Z5aeEJu9hKiMxzHwSJYMTGzCrdPuQdlGRPpKNNhoPCIUEgOYlvLJqw9tBpNzgYKEZ2yGmwoTi3FdeVfwqyxcxNqp69oo/AYpb5ALzY3b8Dbja+jvu8QAhIttNMDk2jGhLRyXDp+Mebmz0eaOZ29hHwOCg8VhOUwevxd2NW+Df84/Fc0OOuh0HJ/TeI4HkWOElxbdiNmjpmNTEs2BE5gLyPDQOGhIkmW4Am5sb11E9YdWoOGviPsJSSOihwlWFq5DOeMmQ2bISUp16OoicIjSsJKGFtbNuKFmlWDIUI/5vjgUJJWhpsn3Y7z8+dRYKiIwiPKguEADnTtwyt1L6C+tw7uoBthhdbMRJPIi7AZ7BifOgFfnHgrJmdPh1mkUwTVRuERI5Is4ZjzKN5ufB17O3eh09sGT9BN095VwoGDRbQi1zYG1dnTsLDkapSkldF4RhRReMSYosho97ahpmsPdrRuwYGuPejwtFGIRIgDhxxbHiozqzEjdzam556DHGuerg+Q1gsKjzhRoMAb8qDd04r63jq8f/xtHO6pRX/QyV5KziDFmIrS9ArMK7wMFRmTkGsbA5vBTpO7YojCQwNkRYZX8qA/4MKeju1499hbONxzEAHanPlTTIIZFRmTcGHBAswacwHsxhRYDTZ6NYkTCg8NGnoq2dq6Ee8fW4/dHdsRDAfYy5KCUTBhes65uLBwPs4fOw92Ywo9XWgEhYcO+CU/jvYdxvbWj7G1ZSN6/N0IhgMIyUFIsqT782c4cBAFA4y8EUbBhExLFmaNuQAz8mahLL2SVrVqFIWHzshKGN2+Lpzob0Jt137Uddeg29+F/oATXskDb8ir+VKwwImwGqywGexIMTmQZspAaXoFpmbPRIFjPDItWeDpVUTzKDx0LiSH4Ao40RfoQUv/SbR6TqLD04YObxu6fB1wB/vhCbnhDXkQVsLsl0eVwAmwGmywGeywG1OQZclBjjUPObY8jLWPwxj7OKSZMuAwpSb1RsJ6ReGRgEJyEN6QFz7JC2/IA0/IDZ/kRbevCx2eVnT5OtHr70Z/yAV/yIegHIBf8iMkhyCFQwjJIchKGOAAWR54JeJ5HlAAnhNgFIwQOBEGwQCzaIaRN8FssCDF4EC6ORPZ1hzk2MYgw5wJizjwhGE12GARrbAarDDwiXnwc7Kh8EgiYSWMUDiEsCwhrIQhyQNBEVYkSPLAP7IiQ1bCUKBAUZRT4yk8x4PjOHDgwHMCeI6HyIsQeXEgSHgDRN4AgRMg8AP/X+Dp1SORUXgQQiJC0/AIIRGh8CCERITCgxASEQoPQkhEKDwIIRGh8CCERITCgxASEQoPQkhEKDwIIRGh8CCERITCgxASEQoPQkhEKDwIIRGh8CCERITCgxASEQoPQkhE/g9joW9reoKWsAAAAABJRU5ErkJggg==;" vertex="1" parent="7">
                    <mxGeometry x="610" y="130" width="131.46" height="130" as="geometry"/>
                </mxCell>
                <mxCell id="21" value="" style="shape=image;verticalLabelPosition=bottom;labelBackgroundColor=default;verticalAlign=top;aspect=fixed;imageAspect=0;image=data:image/png,iVBORw0KGgoAAAANSUhEUgAAAQsAAAEVCAYAAAD3icC5AAAAAXNSR0IArs4c6QAAAARnQU1BAACxjwv8YQUAAAAJcEhZcwAAFiUAABYlAUlSJPAAABFGSURBVHhe7dx9kFX1fcfx793LvXv3sruwEHYJBrIqAYSCgAaNIzVTadMW20mnpqn2D6Oxf9moaaDIgDUFFIlm6kM6doLJpGml09ZGa4c02tRpSmwajFNj60Pqjqys7OwK7sPd573svf0Dfgv83Iffved3zvmdc96v//h874wzLuc997ILqXK5XBYAmEWNPgDAVIgFACPEAoARYgHACLEAYIRYADBCLAAYIRYAjBALAEaIBQAjxAKAEWIBwAixAGCEWAAwQiwAGElF8d+zGO84JuPH2qT4XrsUTxyXYlennO46ob8McFLmox+TOS0flcySZZJddrFkL14umY+16i9zTiRiUTxxXEb+5xUZe+PnMvrW/0ppaFB/CRBp6foGya5YI7nVl0vduiskc9Ey/SWhczYWE/29MvCv/yzDP/2xFDuP62cg1jJLlkn+qmul4Vd/S9LzmvRzKNyLRakkfc8ckv5nD4mUSvoVSJaaGpn32Ztl/u/cLFIT7h8xOhWLoSM/lFPf/HOR0oR+AhItlZ4jC//wbpm7eYt+CowTsSh2nZC+Q0/K8Cs/0U8AzpO/4lMy/+bbJbP4Iv3ku9BjMfBvh6Xn24/rM4AZLLjtS9Jw/VZ99lVosSgXx6XnW4/J4JEf6icABuo3b5EFX7xTUpmsfvJFKLEYP/a2vP/wn8pEX69+AlCB9Lwmaf6TvZJtXa6frAs8FsNHj8jJxx4QCfY/C8RXKiWL7twl+U3X6herAo3F0E/+XU5940F9BmDBR+64R+Ze82l9tiawb9yO/d8bhALw0am/eFDG3n5Tn60JJBaloUF5/+tf1WcAlp38+n1SGvbnr0MEEouebz0qpcGCPgOwbGKgIB8cfFSfrfA9FoXDT8vQT4/oMwCfDB89IoXv/6M+e+ZrLMbb26T30JP6DMBnvU8dlPH2Nn32xNdY9P7NN/UJQEB6nzqoT574FovCD56V0Tdf02cAARl94+cy8Pw/6XPVfInFRKFPev/6L/UZQMB6vvuElAb69bkqvsSi/5lD+gQgJH3fe0qfqmI9FuMd7TLwwnP6DCAkAy88J+Md7fpcMeuxGDhs/1s2ALyx8Vxaj8XQUX6mAnCNjefSaixGXn1ZymOj+gwgZOWxURl59WV9rojVWIy+9jN9AuAIr8+n1ViMvP6qPgFwhNfn01osJvp6pPjeu/oMwBHF996Vib4efTZmLRZjbW/pEwDHeHlOrcVi/Njb+gTAMV6eU3uxePcdfQLgGC/PqbVYFE/w5xWA67w8p9Zicfr9Ln0C4Bgvz6m1WACIN2IBwAixAGCEWAAwQiwAGCEWAIwQCwBGiAUAI8QCgBFiAcAIsQBghFgAMEIsABghFgHIti6Xll0HpCY/Vz/Bopr8XGnZdUCyrcv1EywgFj5Tocitvlxadh2QVK5OfwksUKFQ/58Jhn3Ewkf6O4ps63Jp2bmfYFimv6PQfw07iIVP9FAotctXEQyLpgvDdDuqRyx8MF0oFIJhRypXN2MQCIZdxMKy2UKhEAxvUrk6adm5f9YQEAx7iIVFpqFQCEZ1VChql6/ST1NSwcgsbdVPqACxsKTSUCgEozKVhkKpyc+VxbsfIhgeEAsLqg2FQjDMVBsKpaa+gWB4QCw88hoKhWDMzGsoFIJRPWLhga1QKARjarZCoRCM6hCLKtkOhUIwLmQ7FArBqByxqEJmaasvoVAIxhl+hUIhGJUhFhXKLG2Vxbsf8i0UStKD4XcoFIJhjlhUYDIU9Q36yRdJDUZQoVAIhhliYSjoUChJC0bQoVAIxuyIhYGwQqFMBiNbq59iJaxQKARjZsRiFmGHQqldvkpa7nkgtsFIZWtDDYUyGYwlS/VT4hGLGbgSCqV25ZpYBiOVrZWWex4IPRRKTX2DtNz7MMHQEItpuBYKJW7BmAzFyjX6KVTpxnkEQ0MspuBqKJS4BMPVUCgE40LEQuN6KJSoB8P1UCgE4xxicZ6ohEKJajCiEgqFYJxBLM6KWiiUqAUjaqFQCAaxEIlwKJSoBCOqoVCSHozExyKzZGmkQ6G4Hoyoh0JJcjASHYvMkqXScu/DkQ+F4mow4hIKJanBSHQsFt19r6Qb5+lzpNWuXCPNO/Y5E4xUtlaad+yLTSiUdOM8WXT3vfoca4mOxclH9spEoV+fIy+3aq0T7zDUO4rcqrX6KfImCv1y8pG9+hxriY5FsbNDuvdui2Uwwv5IErePHuebKPRL995tUuzs0E+xluhYCMHwRSqTJRQxlPhYCMGwKpXJSvP2PYQihojFWXEPRvO2P5NUJqufrFKhyK1Zr58iL+mhEGJxIRWM0uCAfoq83Jr10rx9j2/BIBTxRyw0xc4O6dq3nWBUgFAkA7GYQrGjnWAYinMoSoMDhOI8xGIaBGN2cQ9F177thOI8xGIGBGN6iQhFR7t+SjRiMQuC8WGEIpmIhQGCcQ6hSC5iYYhgEIqkIxYVSHIwCAWIRYWSGAxCASEW1UlSMFJz5hAKiBCL6iUhGDV1eVn0x18lFBAhFt4UO9ql+/4dUhoa1E+Rl1uzXi567LtSd/mV+inySkOD0n3/DkJRIWLh0fjxd6Rr7zYpDQ/pp8irydfrU+SVBgeka+82GT/+jn7CLIiFBZPvMGIYjDjho4c3xMKS8fY2guEwQuEdsbCIYLiJUNhBLCwjGG4pDQ8RCkuIhQ8IhhtKw0N818MiYuETghEuFYrx9jb9hCoRCx8RjHAQCn8QC58RjGARCv8QiwAQjGAQCn8Ri4AQDH8RCv8RiwARDH8QimAQi4ARDLsIRXCIRQhUMMqjI/oJFSAUwSIWIRlvb5Pu/TsJRpUIRfCIRYjG2t4iGFUgFOEgFiEjGJUhFOEhFg4gGGYIRbiIhSMIxswIRfiIhUMIxtTKoyOEwgHEwjEE40Ll0RHp3r+TUDiAWDiIYJyhQjHW9pZ+QgiIhaOSHgxC4R5i4bCkBoNQuIlYOC5pwSAU7iIWEZCUYBAKtxGLiBhre0u6D+zW51jpPrCLUDiMWERFTY00bv1dfY2Vxq03itTwW9JVfGWioKZGFt21W/JXXqNfYiV/5TWy6K7dBMNRfFVcl04nIhQKwXAXXxGXpdPS/OX7EhMKZTIY6bR+QoiIhavOhqJuwyb9kgj5K6+R5i/fRzAcQixclPBQKHUbNhEMhxAL1xCKCxAMdxALlxCKKREMNxALVxCKGRGM8BELFxAKIwQjXMQibISiIgQjPMQiRKn0HEJRBYIRDmIRklR6jjRv30MoqkQwgkcsQqBCkVu7UT+hAioYqfQc/QQfEIuAEQq76jZskubtewhGAIhFgAiFP3JrNxKMABCLgBAKfxEM/xGLABCKYBAMfxELnxGKYBEM/xALHxGKcBAMfxALn6QyGUIRIoJhH7HwQSqTkeYd9xOKkBEMu4iFZZOhuGydfkIICIY9xMIiQuGmyWBkMvoJFSAWlhAKt+XWbpTmHfcTDA+IhQWEIhpyl60jGB4QC48IRbQQjOoRC4/iGoqJnlPStecrcvpkt36KPBUMVIZYVCmVyUjL7q/FOhRjv3hduvZ8RSZ6TukvibzcZeukZffXeIdRAWJRhVQ2m5h3FOrXcQ0GH0nMEYsKpbJZadn5YCJCoZw+2U0wQCwqoUJRu2K1foq86UKhEAwQC0NJDoVCMJKNWBggFOckIhjZrH4CsZgdofiwuAejZeeDBGMKxGIGhGJ6cQ5G7YrVBGMKxGIahGJ2BCNZiMUUCIU5gpEcxEKTytURigoRjGQgFudJ5epk8a4DhKIKBCP+iMVZKhTZS1bop8ib6Ov1NRQKwYg3YkEorJoMRl+vfoq8pAcj8bFIRCi6O/WTrwhGPCU6FoTCP6e7O+MfjFydfoq1RMei5Z4HYhqKnlBDoZwLRo9+irzaFaulJWH/gE6iY1H4/vdESiV9jrQz7yi2hR4K5UwwtsXvHUapJIV/eUZfYy3RsRg+ekROPr4/NsEI+6PHdGL3kaRUkpOP75fho0f0S6wlOhYSo2C4GgolNsFIaCiEWJwR9WC4Hgol8sFIcCiEWJwT1WBEJRRKZIOR8FAIsbjQZDDKZf3kpKiFQolcMAiFCLH4sOGjR+TUEw85H4yohkKJTDDKZUJxFrGYwtBLLzodjKiHQnE+GOWynHriIUJxFrGYhqvBiEsoFGeDcTYUQy+9qF8Si1jMwLVgxC0UymQwCv36KRyEYkrEYhauBGOi0B/LUCinuzule++28INBKKZFLAyEHYyJQr9073XnR7j9UuzsCDcYhGJGxMJQWMFQoSh2duinWAotGIRiVsSiAkEHI2mhUAIPBqEwQiwqFFQwkhoKJbBgEApjxKIKfgcj6aFQfA8GoagIsaiSX8EgFBfyLRiEomLEwoOhl16UDw4+Yi0YhGJq1oNBKKpCLDwa/NHzVoJBKGZmLRiEomrEwgKvwSAUZjwHg1B4QiwsqTYYhKIyVQeDUHhGLCyqNBiEojoVB6Nclg8OPkIoPCIWlpkGg1B4o4JRGhzQTxc6G4rBHz2vX1AhYuGD2YJBKOwodnZI177t0weDUFhFLHwyXTAIhV3Fjvapg0EorCMWPtKDURocIBQ++FAwCIUviIXPVDBKgwXp2redUPjkXDAKhMInqXJ5mg/WFXr3D35dn3Cemny9lIYH9RmW1eTnSml4SJ9xno8/9QN9MsI7i4AQimAQCv8QCwBGiAUAI8QCgBFiAcAIsQBghFgAMEIsABghFgCMEAsARogFACPEAoARYgHACLEAYMRaLGpXrtEnAI7x8pxai0V26cX6BMAxXp5Te7FoXa5PAByTab1Un4xZi0XtpSv1CYBjai+p/jm1FovMsurf3gAIRvbjl+iTMWuxEBGZe9VmfQLgiPyma/WpIlZjkVu7UZ8AOKJu3RX6VBGrsahbv0mfADjC6/NpNRbppoWSu2ydPgMIWe6ydZJuWqjPFbEaCxGRhi1b9QlAyGw8l9Zjkb/6Or6NCjik9tKVkr/6On2umPVYiIjM+9wt+gQgJPN/7wv6VBVfYlG3dqPM3bxFnwEEbO7mLZL7pQ36XBVfYiEi0vT5W/UJQMBsPoe+xSLdtFAW3HanPgMIyMIv3uX5OyDn8y0WIiIN1/+m5PmpTiBw+as2S/2v/IY+e+JrLEREFnzhDn0C4DM/njvfY5FunC+Ltu3RZwA+ad6+V9KN8/XZM99jISKS37BJmm66XZ8BWNZ00+1St/6T+mxFILEQEWm84UZpuN77T5EBmFrDlhuk8YYb9dmawGIhIrLgti9J/XWf0WcAHtV/+jOy4NY/0merUuVyuayPfut/9m+l7x/+Sp8BVGH+526ReZ+9SZ+tCyUWIiLDR38sJx/dp88AKrDort2e/1EbU6HFQkTk9Mlu6fnON2Tk1Zf1E4AZ1K3/pCy45Q6Z07xYP/km1FgohcNPS++hJ/UZwBSabr5dGrf69weZ03EiFiIixRPHpe/vvyPDP/tP/QRAROqu+JQ0/f6tklmyTD8FwplYKMP/9R/S+3ffltPvd+knIJHmNC+Wps/fJvmrf1k/Bcq5WCgDLzwnhcNPy+lT7+snIBHmfKRZGrfeKA2/9tv6KRTOxkIZe/sNGfnvozLy2isyfuxt/QzESu0lKyS3dqPUbdgktZ9YrZ9D5Xwszlcq9MnoL16XsbY3ZfxYmxQ7jslEoV9/GRAJ6cb5klnaKtmLPyG1y1dJ7co1vvydDlsiFYuplEaGZaLQL6WhASkNDYqMjUqpOK6/DAhVTSYrqVydpPJzJV3fKOnGeZLK1ekvc1rkYwEgGIH+3RAA0UUsABghFgCMEAsARogFACPEAoARYgHACLEAYIRYADBCLAAYIRYAjBALAEaIBQAjxAKAEWIBwAixAGCEWAAwQiwAGCEWAIwQCwBGiAUAI8QCgBFiAcAIsQBg5P8BQzzmoeSGoIkAAAAASUVORK5CYII=;" vertex="1" parent="7">
                    <mxGeometry x="20" y="130" width="125.31" height="130" as="geometry"/>
                </mxCell>
                <mxCell id="14" value="" style="endArrow=none;html=1;" edge="1" parent="1">
                    <mxGeometry width="50" height="50" relative="1" as="geometry">
                        <mxPoint x="40" y="133" as="sourcePoint"/>
                        <mxPoint x="800" y="133" as="targetPoint"/>
                    </mxGeometry>
                </mxCell>
                <mxCell id="18" value="&lt;font style=&quot;font-size: 14px;&quot;&gt;Ask your question....&lt;/font&gt;" style="text;html=1;align=center;verticalAlign=middle;resizable=0;points=[];autosize=1;strokeColor=none;fillColor=none;" vertex="1" parent="1">
                    <mxGeometry x="305" y="218" width="150" height="30" as="geometry"/>
                </mxCell>
                <mxCell id="19" value="" style="endArrow=none;html=1;exitX=0.064;exitY=1.046;exitDx=0;exitDy=0;exitPerimeter=0;" edge="1" parent="1" source="18">
                    <mxGeometry width="50" height="50" relative="1" as="geometry">
                        <mxPoint x="317.29999999999995" y="248.01" as="sourcePoint"/>
                        <mxPoint x="560" y="248" as="targetPoint"/>
                    </mxGeometry>
                </mxCell>
            </root>
        </mxGraphModel>
    </diagram>
</mxfile>